<?xml version="1.0" standalone="no"?>
<!DOCTYPE svg PUBLIC "-//W3C//DTD SVG 20010904//EN"
 "http://www.w3.org/TR/2001/REC-SVG-20010904/DTD/svg10.dtd">
<svg version="1.0" xmlns="http://www.w3.org/2000/svg"
 width="512.000000pt" height="512.000000pt" viewBox="0 0 512.000000 512.000000"
 preserveAspectRatio="xMidYMid meet">
<metadata>
Created by potrace 1.16, written by Peter Selinger 2001-2019
</metadata>
<g transform="translate(0.000000,512.000000) scale(0.100000,-0.100000)"
fill="#000000" stroke="none">

<path fill="#ff6600" stroke="none" d="M2426 4795 c129 -39 219 -164 219 -304
0 -129 -14 -151 -205 -346 -92 -93 -174 -181 -184 -195 -20 -30 -21 -101 -2
-139 23 -44 151 -158 186 -166 82 -18 74 -24 530 429 479 477 458 461 605 461
183 -1 319 -137 318 -320 0 -142 50 -84 -874 -1010 -873 -876 -854 -855 -829
-921 17 -44 178 -203 219 -214 63 -17 87 2 466 379 406 404 395 396 540 396
284 0 413 -324 222 -553 -69 -82 -59 -140 38 -230 121 -114 132 -109 454 211
287 285 304 297 436 297 233 0 387 -235 295 -450 -29 -68 -1746 -1798 -1830
-1844 -216 -118 -474 34 -475 279 0 148 -20 123 495 640 252 253 463 470 469
482 51 100 -94 279 -209 258 -29 -5 -92 -63 -390 -360 -409 -407 -413 -410
-555 -410 -282 2 -421 318 -237 539 80 96 72 133 -57 260 -151 147 -137 152
-431 -139 -193 -190 -221 -214 -270 -231 -165 -56 -337 13 -411 164 -34 69
-34 217 0 282 15 30 221 244 631 655 491 493 609 616 615 643 13 64 -2 101
-73 175 -80 82 -106 97 -169 97 -47 0 -47 0 -588 -539 -611 -611 -592 -595
-735 -595 -241 0 -392 232 -298 458 18 44 135 165 882 914 474 475 879 878
900 895 78 62 199 83 302 52z"/>
<path fill="#ff6600" stroke="none" d="M4081 3358 c206 -96 253 -365 92 -526
-201 -201 -553 -55 -553 228 0 241 244 398 461 298z"/>
<path fill="#ff6600" stroke="none" d="M750 1670 c270 -51 364 -380 160 -563
-121 -109 -308 -109 -429 -1 -200 180 -110 512 153 564 58 11 57 11 116 0z"/>
</g>
</svg>
