<svg xmlns="http://www.w3.org/2000/svg" x="0px" y="0px" fill="#FF6F61" viewBox="2 6 28 24.1">
	<g>
		<path
			d="M24.66,26a3.83,3.83,0,0,1-2.86-1.32,1.81,1.81,0,0,0-2.95,0,3.76,3.76,0,0,1-5.72,0,1.8,1.8,0,0,0-2.94,0,3.76,3.76,0,0,1-5.72,0A1.9,1.9,0,0,0,3,24a1,1,0,0,1,0-2,3.82,3.82,0,0,1,2.86,1.32A1.9,1.9,0,0,0,7.33,24a1.9,1.9,0,0,0,1.47-.76,3.76,3.76,0,0,1,5.72,0A1.9,1.9,0,0,0,16,24a1.94,1.94,0,0,0,1.48-.76,3.76,3.76,0,0,1,5.72,0,1.81,1.81,0,0,0,2.95,0A3.82,3.82,0,0,1,29,22a1,1,0,0,1,0,2,1.94,1.94,0,0,0-1.48.76A3.82,3.82,0,0,1,24.66,26Zm2.86,2.68A1.94,1.94,0,0,1,29,28a1,1,0,0,0,0-2,3.82,3.82,0,0,0-2.86,1.32,1.81,1.81,0,0,1-2.95,0,3.76,3.76,0,0,0-5.72,0A1.94,1.94,0,0,1,16,28a1.9,1.9,0,0,1-1.47-.76,3.76,3.76,0,0,0-5.72,0A1.9,1.9,0,0,1,7.33,28a1.9,1.9,0,0,1-1.47-.76A3.82,3.82,0,0,0,3,26a1,1,0,0,0,0,2,1.9,1.9,0,0,1,1.47.76,3.76,3.76,0,0,0,5.72,0,1.8,1.8,0,0,1,2.94,0,3.76,3.76,0,0,0,5.72,0,1.81,1.81,0,0,1,2.95,0,3.76,3.76,0,0,0,5.72,0ZM26,6a1,1,0,0,0-1,1c0,.55-1.83,1.08-3.17,1.47-2,.57-4.34,1.25-5.83,2.82C14.51,9.72,12.14,9,10.17,8.47,8.83,8.08,7,7.55,7,7A1,1,0,0,0,5,7a11,11,0,0,0,7.28,10.35,1,1,0,0,1,.72,1V20a1,1,0,0,0,1,1h4a1,1,0,0,0,1-1V18.31a1,1,0,0,1,.72-1A11,11,0,0,0,27,7,1,1,0,0,0,26,6Z"></path>
	</g>
</svg>